<svg xmlns="http://www.w3.org/2000/svg" viewBox="0 0 40 40">
  <g transform="translate(20,20)">
    <circle cx="0" cy="0" r="6" fill="#FFB7C5"/>
    <!-- Petals -->
    <path d="M0,-5 C5,-15 15,-5 0,0 C-15,-5 -5,-15 0,-5" fill="#FFD7E2"/>
    <path d="M0,-5 C5,-15 15,-5 0,0 C-15,-5 -5,-15 0,-5" fill="#FFD7E2" transform="rotate(72)"/>
    <path d="M0,-5 C5,-15 15,-5 0,0 C-15,-5 -5,-15 0,-5" fill="#FFD7E2" transform="rotate(144)"/>
    <path d="M0,-5 C5,-15 15,-5 0,0 C-15,-5 -5,-15 0,-5" fill="#FFD7E2" transform="rotate(216)"/>
    <path d="M0,-5 C5,-15 15,-5 0,0 C-15,-5 -5,-15 0,-5" fill="#FFD7E2" transform="rotate(288)"/>
  </g>
</svg>